<?xml version="1.0" standalone="no"?>
<!DOCTYPE svg PUBLIC "-//W3C//DTD SVG 20010904//EN"
 "http://www.w3.org/TR/2001/REC-SVG-20010904/DTD/svg10.dtd">
<svg version="1.0" xmlns="http://www.w3.org/2000/svg"
 width="512.000000pt" height="512.000000pt" viewBox="0 0 512.000000 512.000000"
 preserveAspectRatio="xMidYMid meet">

<g transform="translate(0.000000,512.000000) scale(0.100000,-0.100000)"
fill="#000000" stroke="none">
<path d="M1846 4559 c-32 -11 -82 -35 -110 -53 -92 -59 -134 -117 -236 -330
l-94 -196 -83 0 -82 0 -3 98 -3 97 -435 0 -435 0 -3 -86 -3 -87 -47 -6 c-115
-15 -227 -100 -279 -211 l-28 -60 0 -1445 0 -1445 23 -58 c31 -76 116 -168
190 -204 l57 -28 2285 0 2285 0 57 28 c74 36 159 128 190 204 l23 58 0 1445 0
1445 -28 60 c-48 104 -138 177 -249 205 -39 10 -44 15 -41 35 7 32 -22 82 -58
100 -25 14 -62 16 -210 13 l-179 -3 -32 -33 c-27 -27 -33 -40 -33 -77 l0 -45
-285 0 -286 0 -94 196 c-102 213 -144 271 -236 330 -28 18 -79 42 -112 53 -59
20 -81 21 -714 21 -629 -1 -655 -1 -712 -21z m1342 -311 c16 -16 16 -200 0
-216 -17 -17 -1239 -17 -1256 0 -8 8 -12 47 -12 108 0 61 4 100 12 108 17 17
1239 17 1256 0z m-2554 -580 c86 -26 166 -136 166 -228 0 -124 -116 -240 -240
-240 -63 0 -114 23 -165 75 -102 101 -102 229 0 330 70 71 145 90 239 63z
m2208 -18 c279 -58 495 -177 703 -385 209 -209 325 -422 387 -708 29 -136 31
-398 4 -532 -38 -191 -113 -372 -221 -535 -63 -96 -268 -301 -362 -363 -169
-112 -330 -180 -515 -217 -398 -82 -812 15 -1133 265 -271 211 -453 507 -521
850 -27 134 -25 396 4 532 41 189 108 348 219 516 61 93 267 298 363 362 195
130 407 208 650 239 80 10 327 -4 422 -24z m-1878 -449 c26 -27 31 -39 31 -81
0 -43 -5 -54 -33 -82 -28 -28 -39 -33 -82 -33 -43 0 -54 5 -82 33 -28 28 -33
39 -33 81 0 52 25 92 70 112 37 16 96 3 129 -30z"/>
<path d="M2380 3385 c-481 -76 -860 -467 -930 -960 -54 -383 112 -786 424
-1027 345 -267 790 -311 1181 -118 229 113 394 278 509 507 268 537 52 1202
-482 1481 -223 116 -457 155 -702 117z m324 -525 c113 -29 190 -73 276 -160
87 -86 131 -163 160 -276 36 -141 18 -294 -52 -427 -42 -81 -164 -203 -245
-245 -133 -70 -286 -88 -427 -52 -111 28 -189 73 -276 160 -87 86 -131 162
-160 276 -36 141 -18 294 52 427 42 80 163 201 245 245 132 70 286 88 427 52z"/>
</g>
</svg>
