<?xml version="1.0" standalone="no"?>
<!DOCTYPE svg PUBLIC "-//W3C//DTD SVG 20010904//EN"
 "http://www.w3.org/TR/2001/REC-SVG-20010904/DTD/svg10.dtd">
<svg version="1.0" xmlns="http://www.w3.org/2000/svg"
 width="512.000000pt" height="512.000000pt" viewBox="0 0 512.000000 512.000000"
 preserveAspectRatio="xMidYMid meet">

<g transform="translate(0.000000,512.000000) scale(0.100000,-0.100000)"
fill="#000000" stroke="none">
<path d="M1402 4410 c-235 -62 -417 -243 -477 -475 -21 -79 -20 -242 0 -320
62 -235 241 -414 475 -474 l75 -20 -162 0 c-89 -1 -186 -6 -215 -12 -121 -25
-228 -111 -285 -227 l-28 -57 0 -920 0 -920 27 -57 c31 -67 103 -147 162 -182
101 -59 49 -57 1267 -54 l1115 3 76 38 c158 77 228 207 228 419 l0 98 170 0
170 0 0 655 0 655 -169 0 -168 0 -5 123 c-6 140 -24 198 -85 278 -21 27 -60
65 -88 84 -89 61 -120 68 -330 73 l-190 4 73 19 c117 29 206 82 298 174 205
205 250 486 122 754 -80 168 -259 308 -443 346 -355 74 -702 -149 -781 -502
l-17 -78 -13 65 c-69 366 -443 604 -802 510z m282 -414 c86 -50 128 -123 128
-221 0 -70 -17 -117 -62 -169 -118 -134 -334 -104 -414 56 -67 134 -2 301 139
353 60 22 153 14 209 -19z m1302 6 c90 -47 138 -126 138 -227 0 -83 -21 -132
-82 -187 -157 -142 -402 -44 -420 168 -16 191 194 333 364 246z m-748 -379
c33 -132 75 -206 172 -304 96 -96 182 -147 302 -179 l73 -19 -570 0 c-511 1
-563 2 -505 14 148 32 303 139 394 273 50 73 106 215 106 271 0 47 5 39 28
-56z m-20 -1400 c378 -255 372 -250 372 -325 0 -27 -8 -46 -27 -68 -16 -16
-147 -111 -293 -211 l-265 -181 -48 5 c-57 5 -92 34 -107 86 -15 53 -12 717 3
761 7 19 27 44 46 57 64 43 81 37 319 -124z"/>
<path d="M4505 2661 l-300 -97 -3 -660 -2 -659 306 -99 c332 -106 354 -109
394 -59 20 25 20 35 20 815 0 870 3 824 -62 847 -17 6 -36 11 -42 10 -6 0
-146 -44 -311 -98z"/>
<path d="M254 2550 c-55 -22 -54 -5 -54 -648 l0 -594 29 -29 29 -29 161 0 161
0 0 655 0 655 -152 -1 c-84 0 -163 -4 -174 -9z"/>
</g>
</svg>
