<?xml version="1.0" standalone="no"?>
<!DOCTYPE svg PUBLIC "-//W3C//DTD SVG 20010904//EN"
 "http://www.w3.org/TR/2001/REC-SVG-20010904/DTD/svg10.dtd">
<svg version="1.0" xmlns="http://www.w3.org/2000/svg"
 width="512.000000pt" height="512.000000pt" viewBox="0 0 512.000000 512.000000"
 preserveAspectRatio="xMidYMid meet">

<g transform="translate(0.000000,512.000000) scale(0.100000,-0.100000)"
fill="Current-color" stroke="none">
<path d="M982 4465 c-60 -18 -118 -61 -152 -109 -15 -23 -59 -105 -98 -183
l-71 -141 -218 -4 c-207 -3 -221 -5 -268 -28 -63 -31 -121 -89 -149 -149 -21
-46 -21 -46 -21 -951 l0 -905 28 -57 c34 -69 91 -121 164 -148 51 -19 77 -20
609 -20 l554 0 -2 232 -3 232 -57 17 c-232 69 -415 240 -498 468 -165 452 133
937 615 1002 326 43 669 -158 786 -460 l24 -61 393 0 393 0 -3 308 c-3 297 -4
308 -26 349 -35 66 -79 110 -140 140 -56 28 -60 28 -275 31 l-218 4 -79 158
c-44 87 -93 175 -110 194 -17 19 -57 48 -88 63 l-57 28 -495 2 c-395 2 -504
-1 -538 -12z"/>
<path d="M1435 3419 c-87 -13 -191 -67 -254 -134 -163 -172 -165 -443 -6 -614
48 -51 121 -103 163 -116 22 -6 22 -5 22 97 0 172 42 279 150 388 36 37 92 80
126 98 63 33 166 62 222 62 17 0 32 4 32 9 0 6 -25 36 -55 69 -103 112 -249
163 -400 141z"/>
<path d="M1806 2885 c-49 -17 -103 -68 -127 -120 -18 -38 -19 -86 -19 -1000
l0 -960 30 -52 c21 -36 44 -61 77 -80 l48 -28 1034 -3 1033 -2 53 24 c53 24
93 66 116 121 9 20 15 110 19 271 l5 242 248 -199 c170 -135 263 -203 295
-213 33 -12 85 -16 191 -16 144 0 147 1 198 30 36 21 61 44 80 77 l28 48 0
745 c0 820 4 768 -62 834 -54 55 -93 66 -249 66 -100 0 -153 -4 -185 -15 -29
-10 -128 -82 -294 -215 l-250 -200 -5 243 c-5 229 -6 245 -29 290 -25 52 -71
92 -128 113 -57 20 -2050 19 -2107 -1z m1782 -386 c64 -32 97 -86 97 -164 0
-50 -5 -69 -28 -103 -54 -83 -172 -109 -254 -55 -99 64 -118 191 -40 280 58
65 143 81 225 42z"/>
</g>
</svg>
